<?xml version="1.0" encoding="UTF-8" standalone="no"?>
<!DOCTYPE svg PUBLIC "-//W3C//DTD SVG 1.1//EN" "http://www.w3.org/Graphics/SVG/1.1/DTD/svg11.dtd">
<svg width="100%" height="100%" viewBox="0 0 1737 662" version="1.1" xmlns="http://www.w3.org/2000/svg" xmlns:xlink="http://www.w3.org/1999/xlink" xml:space="preserve" xmlns:serif="http://www.serif.com/" style="fill-rule:evenodd;clip-rule:evenodd;stroke-linejoin:round;stroke-miterlimit:1.41421;">
    <g transform="matrix(7.02548,0,0,7.02548,-4588.47,-3146.56)">
        <g transform="matrix(1,0,0,1,652.536,514.063)">
            <path d="M6.6,-40.85L7.25,2.75L1.45,2.85L0.8,-40.75L6.6,-40.85Z" style="fill:rgb(52,77,108);fill-rule:nonzero;"/>
            <path d="M14.6,-30.9L14.6,-30.85C15.067,-31.417 15.642,-31.858 16.325,-32.175C17.008,-32.492 17.867,-32.65 18.9,-32.65C20.033,-32.65 21.067,-32.442 22,-32.025C22.933,-31.608 23.733,-30.9 24.4,-29.9C25.067,-28.9 25.592,-27.575 25.975,-25.925C26.358,-24.275 26.583,-22.2 26.65,-19.7C26.683,-18.767 26.717,-17.742 26.75,-16.625C26.783,-15.508 26.825,-14.367 26.875,-13.2C26.925,-12.033 26.975,-10.85 27.025,-9.65C27.075,-8.45 27.133,-7.3 27.2,-6.2C27.333,-3.633 27.467,-1.017 27.6,1.65L21.8,1.95C21.667,-0.75 21.533,-3.4 21.4,-6C21.333,-7.1 21.275,-8.258 21.225,-9.475C21.175,-10.692 21.125,-11.892 21.075,-13.075C21.025,-14.258 20.983,-15.408 20.95,-16.525C20.917,-17.642 20.883,-18.667 20.85,-19.6C20.783,-22.3 20.5,-24.183 20,-25.25C19.5,-26.317 18.717,-26.85 17.65,-26.85C17.183,-26.85 16.792,-26.683 16.475,-26.35C16.158,-26.017 15.9,-25.592 15.7,-25.075C15.5,-24.558 15.333,-23.983 15.2,-23.35C15.067,-22.717 14.983,-22.083 14.95,-21.45L15.85,1.8L10.05,2L8.8,-30.7L14.6,-30.9Z" style="fill:rgb(52,77,108);fill-rule:nonzero;"/>
            <path d="M26.85,-31.2L28.6,-31.25C28.6,-31.95 28.592,-32.6 28.575,-33.2C28.558,-33.8 28.55,-34.333 28.55,-34.8L28.55,-36.25L34.35,-36.25L34.35,-31.55L39,-31.8L39,-26L34.4,-25.75L34.55,-5.4C34.583,-4.433 34.65,-3.725 34.75,-3.275C34.85,-2.825 35.025,-2.583 35.275,-2.55C35.525,-2.517 35.875,-2.675 36.325,-3.025C36.775,-3.375 37.367,-3.883 38.1,-4.55L40,0.55C39.433,1.25 38.708,1.875 37.825,2.425C36.942,2.975 35.983,3.25 34.95,3.25C33.05,3.25 31.558,2.492 30.475,0.975C29.392,-0.542 28.817,-2.633 28.75,-5.3C28.717,-6.3 28.692,-7.575 28.675,-9.125C28.658,-10.675 28.642,-12.358 28.625,-14.175C28.608,-15.992 28.6,-17.875 28.6,-19.825C28.6,-21.775 28.6,-23.65 28.6,-25.45L26.85,-25.4L26.85,-31.2Z" style="fill:rgb(52,77,108);fill-rule:nonzero;"/>
            <path d="M56.95,-16.25C56.683,-16.25 56.133,-16.242 55.3,-16.225C54.467,-16.208 53.525,-16.192 52.475,-16.175C51.425,-16.158 50.333,-16.142 49.2,-16.125C48.067,-16.108 47.083,-16.1 46.25,-16.1L46.25,-14.35C46.317,-11.217 46.617,-8.717 47.15,-6.85C47.683,-4.983 48.583,-4.05 49.85,-4.05C50.25,-4.05 50.575,-4.242 50.825,-4.625C51.075,-5.008 51.275,-5.5 51.425,-6.1C51.575,-6.7 51.683,-7.358 51.75,-8.075C51.817,-8.792 51.85,-9.483 51.85,-10.15C51.85,-10.25 51.85,-10.433 51.85,-10.7C51.85,-10.967 51.842,-11.25 51.825,-11.55C51.808,-11.85 51.792,-12.142 51.775,-12.425C51.758,-12.708 51.75,-12.933 51.75,-13.1L57.55,-13.6C57.55,-13.433 57.558,-13.208 57.575,-12.925C57.592,-12.642 57.608,-12.325 57.625,-11.975C57.642,-11.625 57.65,-11.283 57.65,-10.95C57.65,-10.617 57.65,-10.35 57.65,-10.15C57.65,-8.85 57.542,-7.492 57.325,-6.075C57.108,-4.658 56.717,-3.375 56.15,-2.225C55.583,-1.075 54.792,-0.125 53.775,0.625C52.758,1.375 51.45,1.75 49.85,1.75C48.15,1.75 46.708,1.375 45.525,0.625C44.342,-0.125 43.392,-1.2 42.675,-2.6C41.958,-4 41.425,-5.683 41.075,-7.65C40.725,-9.617 40.517,-11.817 40.45,-14.25L40.45,-15.8C40.45,-18.033 40.6,-20.158 40.9,-22.175C41.2,-24.192 41.692,-25.967 42.375,-27.5C43.058,-29.033 43.958,-30.25 45.075,-31.15C46.192,-32.05 47.583,-32.5 49.25,-32.5C50.517,-32.5 51.583,-32.242 52.45,-31.725C53.317,-31.208 54.042,-30.525 54.625,-29.675C55.208,-28.825 55.65,-27.833 55.95,-26.7C56.25,-25.567 56.475,-24.4 56.625,-23.2C56.775,-22 56.867,-20.8 56.9,-19.6C56.933,-18.4 56.95,-17.283 56.95,-16.25ZM49.25,-26.7C48.517,-26.7 47.942,-26.258 47.525,-25.375C47.108,-24.492 46.8,-23.35 46.6,-21.95C47.467,-21.983 48.342,-22.008 49.225,-22.025C50.108,-22.042 50.75,-22.05 51.15,-22.05C51.117,-22.683 51.067,-23.283 51,-23.85C50.933,-24.417 50.825,-24.908 50.675,-25.325C50.525,-25.742 50.333,-26.075 50.1,-26.325C49.867,-26.575 49.583,-26.7 49.25,-26.7Z" style="fill:rgb(52,77,108);fill-rule:nonzero;"/>
            <path d="M76.6,-31.4C76.4,-27.033 76.233,-23 76.1,-19.3C76.033,-17.733 75.967,-16.158 75.9,-14.575C75.833,-12.992 75.775,-11.508 75.725,-10.125C75.675,-8.742 75.625,-7.533 75.575,-6.5C75.525,-5.467 75.5,-4.7 75.5,-4.2C75.467,-2.8 75.258,-1.517 74.875,-0.35C74.492,0.817 73.933,1.825 73.2,2.675C72.467,3.525 71.575,4.192 70.525,4.675C69.475,5.158 68.267,5.417 66.9,5.45C65.667,5.483 64.517,5.367 63.45,5.1C62.383,4.833 61.467,4.383 60.7,3.75C59.933,3.117 59.325,2.3 58.875,1.3C58.425,0.3 58.2,-0.917 58.2,-2.35L58.3,-3.3L64.1,-2.8L64,-2.35C64,-1.55 64.225,-1.008 64.675,-0.725C65.125,-0.442 65.833,-0.317 66.8,-0.35C67.733,-0.383 68.442,-0.767 68.925,-1.5C69.408,-2.233 69.667,-3.167 69.7,-4.3L69.7,-5.05C68.5,-3.95 67.167,-3.4 65.7,-3.4C64.4,-3.4 63.292,-3.667 62.375,-4.2C61.458,-4.733 60.708,-5.592 60.125,-6.775C59.542,-7.958 59.108,-9.492 58.825,-11.375C58.542,-13.258 58.4,-15.533 58.4,-18.2C58.4,-20.9 58.608,-23.175 59.025,-25.025C59.442,-26.875 60,-28.383 60.7,-29.55C61.4,-30.717 62.217,-31.558 63.15,-32.075C64.083,-32.592 65.067,-32.85 66.1,-32.85C66.967,-32.85 67.792,-32.658 68.575,-32.275C69.358,-31.892 70.083,-31.267 70.75,-30.4L70.75,-31.3C70.75,-31.433 70.767,-31.533 70.8,-31.6L76.6,-31.4ZM70.25,-18.5C70.183,-21.567 69.867,-23.742 69.3,-25.025C68.733,-26.308 68.067,-26.95 67.3,-26.95C66.467,-26.95 65.742,-26.283 65.125,-24.95C64.508,-23.617 64.2,-21.35 64.2,-18.15C64.2,-14.917 64.408,-12.617 64.825,-11.25C65.242,-9.883 65.917,-9.2 66.85,-9.2C67.683,-9.2 68.375,-9.7 68.925,-10.7C69.475,-11.7 69.85,-13 70.05,-14.6L70.25,-18.5Z" style="fill:rgb(52,77,108);fill-rule:nonzero;"/>
            <path d="M83.1,-31.55L83.1,-31.4C83.767,-31.867 84.475,-32.183 85.225,-32.35C85.975,-32.517 86.725,-32.558 87.475,-32.475C88.225,-32.392 88.95,-32.183 89.65,-31.85C90.35,-31.517 90.983,-31.083 91.55,-30.55L89.85,-24.75C89.017,-25.717 88.225,-26.367 87.475,-26.7C86.725,-27.033 86.05,-27.083 85.45,-26.85C84.85,-26.617 84.358,-26.133 83.975,-25.4C83.592,-24.667 83.367,-23.733 83.3,-22.6L83.95,2.2L78.15,2.3L77.3,-31.45L83.1,-31.55Z" style="fill:rgb(52,77,108);fill-rule:nonzero;"/>
            <path d="M91.75,-18.15C91.65,-18.783 91.583,-19.375 91.55,-19.925C91.517,-20.475 91.5,-20.983 91.5,-21.45C91.5,-23.083 91.675,-24.6 92.025,-26C92.375,-27.4 92.9,-28.617 93.6,-29.65C94.3,-30.683 95.15,-31.483 96.15,-32.05C97.15,-32.617 98.3,-32.9 99.6,-32.9C102.567,-32.9 104.758,-31.575 106.175,-28.925C107.592,-26.275 108.3,-22.467 108.3,-17.5C108.3,-15.5 108.333,-13.4 108.4,-11.2C108.467,-9 108.533,-6.983 108.6,-5.15C108.7,-2.983 108.8,-0.867 108.9,1.2L103.1,1.5C103.067,1.367 103.05,1.2 103.05,1C103.05,0.833 103.042,0.633 103.025,0.4C103.008,0.167 103,-0.1 103,-0.4C102.267,0.533 101.417,1.283 100.45,1.85C99.483,2.417 98.417,2.7 97.25,2.7C95.65,2.7 94.267,2.033 93.1,0.7C91.933,-0.633 91.217,-2.567 90.95,-5.1C90.817,-6.467 90.883,-7.833 91.15,-9.2C91.417,-10.567 91.858,-11.817 92.475,-12.95C93.092,-14.083 93.858,-15.033 94.775,-15.8C95.692,-16.567 96.75,-17.017 97.95,-17.15C99.717,-17.283 101.233,-16.883 102.5,-15.95L102.5,-17.5C102.5,-20.6 102.267,-22.975 101.8,-24.625C101.333,-26.275 100.6,-27.1 99.6,-27.1C98.833,-27.1 98.258,-26.558 97.875,-25.475C97.492,-24.392 97.3,-23.05 97.3,-21.45C97.3,-20.483 97.35,-19.65 97.45,-18.95L91.75,-18.15ZM99.95,-3.1C100.383,-3.1 100.767,-3.225 101.1,-3.475C101.433,-3.725 101.717,-4.058 101.95,-4.475C102.183,-4.892 102.358,-5.367 102.475,-5.9C102.592,-6.433 102.667,-6.967 102.7,-7.5C102.7,-7.667 102.692,-7.825 102.675,-7.975C102.658,-8.125 102.65,-8.283 102.65,-8.45C102.55,-9.25 102.242,-9.908 101.725,-10.425C101.208,-10.942 100.533,-11.167 99.7,-11.1C99.167,-11.067 98.7,-10.858 98.3,-10.475C97.9,-10.092 97.567,-9.642 97.3,-9.125C97.033,-8.608 96.85,-8.05 96.75,-7.45C96.65,-6.85 96.633,-6.333 96.7,-5.9C96.833,-5.133 97.158,-4.475 97.675,-3.925C98.192,-3.375 98.95,-3.1 99.95,-3.1Z" style="fill:rgb(52,77,108);fill-rule:nonzero;"/>
            <path d="M116.45,-36.75L115.4,2.6L109.6,2.5L110.65,-36.85L116.45,-36.75Z" style="fill:rgb(52,77,108);fill-rule:nonzero;"/>
        </g>
        <g transform="matrix(1,0,0,1,769.286,514.063)">
            <path d="M15.7,-22.75C15.767,-23.85 15.825,-24.883 15.875,-25.85C15.925,-26.817 15.95,-27.75 15.95,-28.65C15.95,-31.283 15.683,-33.283 15.15,-34.65C14.617,-36.017 13.583,-36.7 12.05,-36.7C10.95,-36.7 10.025,-36.175 9.275,-35.125C8.525,-34.075 7.925,-32.725 7.475,-31.075C7.025,-29.425 6.7,-27.567 6.5,-25.5C6.3,-23.433 6.2,-21.4 6.2,-19.4C6.2,-16.733 6.267,-14.258 6.4,-11.975C6.533,-9.692 6.8,-7.708 7.2,-6.025C7.6,-4.342 8.15,-3.025 8.85,-2.075C9.55,-1.125 10.45,-0.65 11.55,-0.65C12.383,-0.65 13.05,-0.933 13.55,-1.5C14.05,-2.067 14.433,-2.8 14.7,-3.7C14.967,-4.6 15.15,-5.608 15.25,-6.725C15.35,-7.842 15.4,-8.933 15.4,-10C15.4,-10.667 15.392,-11.308 15.375,-11.925C15.358,-12.542 15.333,-13.133 15.3,-13.7L21.1,-13.9C21.133,-13.333 21.158,-12.708 21.175,-12.025C21.192,-11.342 21.2,-10.667 21.2,-10C21.2,-8.233 21.083,-6.458 20.85,-4.675C20.617,-2.892 20.158,-1.267 19.475,0.2C18.792,1.667 17.817,2.858 16.55,3.775C15.283,4.692 13.617,5.15 11.55,5.15C9.217,5.15 7.325,4.517 5.875,3.25C4.425,1.983 3.292,0.25 2.475,-1.95C1.658,-4.15 1.108,-6.742 0.825,-9.725C0.542,-12.708 0.4,-15.933 0.4,-19.4C0.4,-22.1 0.592,-24.817 0.975,-27.55C1.358,-30.283 2,-32.758 2.9,-34.975C3.8,-37.192 5,-39 6.5,-40.4C8,-41.8 9.85,-42.5 12.05,-42.5C13.95,-42.5 15.517,-42.2 16.75,-41.6C17.983,-41 18.975,-40.117 19.725,-38.95C20.475,-37.783 21,-36.342 21.3,-34.625C21.6,-32.908 21.75,-30.917 21.75,-28.65C21.75,-27.75 21.725,-26.767 21.675,-25.7C21.625,-24.633 21.567,-23.55 21.5,-22.45L15.7,-22.75Z" style="fill:rgb(55,38,80);fill-rule:nonzero;"/>
            <path d="M29.05,-36.75L28,2.6L22.2,2.5L23.25,-36.85L29.05,-36.75Z" style="fill:rgb(55,38,80);fill-rule:nonzero;"/>
            <path d="M46.1,-16.25C45.833,-16.25 45.283,-16.242 44.45,-16.225C43.617,-16.208 42.675,-16.192 41.625,-16.175C40.575,-16.158 39.483,-16.142 38.35,-16.125C37.217,-16.108 36.233,-16.1 35.4,-16.1L35.4,-14.35C35.467,-11.217 35.767,-8.717 36.3,-6.85C36.833,-4.983 37.733,-4.05 39,-4.05C39.4,-4.05 39.725,-4.242 39.975,-4.625C40.225,-5.008 40.425,-5.5 40.575,-6.1C40.725,-6.7 40.833,-7.358 40.9,-8.075C40.967,-8.792 41,-9.483 41,-10.15C41,-10.25 41,-10.433 41,-10.7C41,-10.967 40.992,-11.25 40.975,-11.55C40.958,-11.85 40.942,-12.142 40.925,-12.425C40.908,-12.708 40.9,-12.933 40.9,-13.1L46.7,-13.6C46.7,-13.433 46.708,-13.208 46.725,-12.925C46.742,-12.642 46.758,-12.325 46.775,-11.975C46.792,-11.625 46.8,-11.283 46.8,-10.95C46.8,-10.617 46.8,-10.35 46.8,-10.15C46.8,-8.85 46.692,-7.492 46.475,-6.075C46.258,-4.658 45.867,-3.375 45.3,-2.225C44.733,-1.075 43.942,-0.125 42.925,0.625C41.908,1.375 40.6,1.75 39,1.75C37.3,1.75 35.858,1.375 34.675,0.625C33.492,-0.125 32.542,-1.2 31.825,-2.6C31.108,-4 30.575,-5.683 30.225,-7.65C29.875,-9.617 29.667,-11.817 29.6,-14.25L29.6,-15.8C29.6,-18.033 29.75,-20.158 30.05,-22.175C30.35,-24.192 30.842,-25.967 31.525,-27.5C32.208,-29.033 33.108,-30.25 34.225,-31.15C35.342,-32.05 36.733,-32.5 38.4,-32.5C39.667,-32.5 40.733,-32.242 41.6,-31.725C42.467,-31.208 43.192,-30.525 43.775,-29.675C44.358,-28.825 44.8,-27.833 45.1,-26.7C45.4,-25.567 45.625,-24.4 45.775,-23.2C45.925,-22 46.017,-20.8 46.05,-19.6C46.083,-18.4 46.1,-17.283 46.1,-16.25ZM38.4,-26.7C37.667,-26.7 37.092,-26.258 36.675,-25.375C36.258,-24.492 35.95,-23.35 35.75,-21.95C36.617,-21.983 37.492,-22.008 38.375,-22.025C39.258,-22.042 39.9,-22.05 40.3,-22.05C40.267,-22.683 40.217,-23.283 40.15,-23.85C40.083,-24.417 39.975,-24.908 39.825,-25.325C39.675,-25.742 39.483,-26.075 39.25,-26.325C39.017,-26.575 38.733,-26.7 38.4,-26.7Z" style="fill:rgb(55,38,80);fill-rule:nonzero;"/>
            <path d="M48.25,-18.15C48.15,-18.783 48.083,-19.375 48.05,-19.925C48.017,-20.475 48,-20.983 48,-21.45C48,-23.083 48.175,-24.6 48.525,-26C48.875,-27.4 49.4,-28.617 50.1,-29.65C50.8,-30.683 51.65,-31.483 52.65,-32.05C53.65,-32.617 54.8,-32.9 56.1,-32.9C59.067,-32.9 61.258,-31.575 62.675,-28.925C64.092,-26.275 64.8,-22.467 64.8,-17.5C64.8,-15.5 64.833,-13.4 64.9,-11.2C64.967,-9 65.033,-6.983 65.1,-5.15C65.2,-2.983 65.3,-0.867 65.4,1.2L59.6,1.5C59.567,1.367 59.55,1.2 59.55,1C59.55,0.833 59.542,0.633 59.525,0.4C59.508,0.167 59.5,-0.1 59.5,-0.4C58.767,0.533 57.917,1.283 56.95,1.85C55.983,2.417 54.917,2.7 53.75,2.7C52.15,2.7 50.767,2.033 49.6,0.7C48.433,-0.633 47.717,-2.567 47.45,-5.1C47.317,-6.467 47.383,-7.833 47.65,-9.2C47.917,-10.567 48.358,-11.817 48.975,-12.95C49.592,-14.083 50.358,-15.033 51.275,-15.8C52.192,-16.567 53.25,-17.017 54.45,-17.15C56.217,-17.283 57.733,-16.883 59,-15.95L59,-17.5C59,-20.6 58.767,-22.975 58.3,-24.625C57.833,-26.275 57.1,-27.1 56.1,-27.1C55.333,-27.1 54.758,-26.558 54.375,-25.475C53.992,-24.392 53.8,-23.05 53.8,-21.45C53.8,-20.483 53.85,-19.65 53.95,-18.95L48.25,-18.15ZM56.45,-3.1C56.883,-3.1 57.267,-3.225 57.6,-3.475C57.933,-3.725 58.217,-4.058 58.45,-4.475C58.683,-4.892 58.858,-5.367 58.975,-5.9C59.092,-6.433 59.167,-6.967 59.2,-7.5C59.2,-7.667 59.192,-7.825 59.175,-7.975C59.158,-8.125 59.15,-8.283 59.15,-8.45C59.05,-9.25 58.742,-9.908 58.225,-10.425C57.708,-10.942 57.033,-11.167 56.2,-11.1C55.667,-11.067 55.2,-10.858 54.8,-10.475C54.4,-10.092 54.067,-9.642 53.8,-9.125C53.533,-8.608 53.35,-8.05 53.25,-7.45C53.15,-6.85 53.133,-6.333 53.2,-5.9C53.333,-5.133 53.658,-4.475 54.175,-3.925C54.692,-3.375 55.45,-3.1 56.45,-3.1Z" style="fill:rgb(55,38,80);fill-rule:nonzero;"/>
            <path d="M71.8,-30.9L71.8,-30.85C72.267,-31.417 72.842,-31.858 73.525,-32.175C74.208,-32.492 75.067,-32.65 76.1,-32.65C77.233,-32.65 78.267,-32.442 79.2,-32.025C80.133,-31.608 80.933,-30.9 81.6,-29.9C82.267,-28.9 82.792,-27.575 83.175,-25.925C83.558,-24.275 83.783,-22.2 83.85,-19.7C83.883,-18.767 83.917,-17.742 83.95,-16.625C83.983,-15.508 84.025,-14.367 84.075,-13.2C84.125,-12.033 84.175,-10.85 84.225,-9.65C84.275,-8.45 84.333,-7.3 84.4,-6.2C84.533,-3.633 84.667,-1.017 84.8,1.65L79,1.95C78.867,-0.75 78.733,-3.4 78.6,-6C78.533,-7.1 78.475,-8.258 78.425,-9.475C78.375,-10.692 78.325,-11.892 78.275,-13.075C78.225,-14.258 78.183,-15.408 78.15,-16.525C78.117,-17.642 78.083,-18.667 78.05,-19.6C77.983,-22.3 77.7,-24.183 77.2,-25.25C76.7,-26.317 75.917,-26.85 74.85,-26.85C74.383,-26.85 73.992,-26.683 73.675,-26.35C73.358,-26.017 73.1,-25.592 72.9,-25.075C72.7,-24.558 72.533,-23.983 72.4,-23.35C72.267,-22.717 72.183,-22.083 72.15,-21.45L73.05,1.8L67.25,2L66,-30.7L71.8,-30.9Z" style="fill:rgb(55,38,80);fill-rule:nonzero;"/>
            <path d="M92.05,-30.25L91.45,1.65L85.65,1.55L86.25,-30.35L92.05,-30.25ZM85,-35.85C85,-36.95 85.383,-37.892 86.15,-38.675C86.917,-39.458 87.85,-39.85 88.95,-39.85C90.017,-39.85 90.942,-39.458 91.725,-38.675C92.508,-37.892 92.9,-36.95 92.9,-35.85C92.9,-34.783 92.508,-33.858 91.725,-33.075C90.942,-32.292 90.017,-31.9 88.95,-31.9C87.85,-31.9 86.917,-32.292 86.15,-33.075C85.383,-33.858 85,-34.783 85,-35.85Z" style="fill:rgb(55,38,80);fill-rule:nonzero;"/>
            <path d="M99.15,-30.9L99.15,-30.85C99.617,-31.417 100.192,-31.858 100.875,-32.175C101.558,-32.492 102.417,-32.65 103.45,-32.65C104.583,-32.65 105.617,-32.442 106.55,-32.025C107.483,-31.608 108.283,-30.9 108.95,-29.9C109.617,-28.9 110.142,-27.575 110.525,-25.925C110.908,-24.275 111.133,-22.2 111.2,-19.7C111.233,-18.767 111.267,-17.742 111.3,-16.625C111.333,-15.508 111.375,-14.367 111.425,-13.2C111.475,-12.033 111.525,-10.85 111.575,-9.65C111.625,-8.45 111.683,-7.3 111.75,-6.2C111.883,-3.633 112.017,-1.017 112.15,1.65L106.35,1.95C106.217,-0.75 106.083,-3.4 105.95,-6C105.883,-7.1 105.825,-8.258 105.775,-9.475C105.725,-10.692 105.675,-11.892 105.625,-13.075C105.575,-14.258 105.533,-15.408 105.5,-16.525C105.467,-17.642 105.433,-18.667 105.4,-19.6C105.333,-22.3 105.05,-24.183 104.55,-25.25C104.05,-26.317 103.267,-26.85 102.2,-26.85C101.733,-26.85 101.342,-26.683 101.025,-26.35C100.708,-26.017 100.45,-25.592 100.25,-25.075C100.05,-24.558 99.883,-23.983 99.75,-23.35C99.617,-22.717 99.533,-22.083 99.5,-21.45L100.4,1.8L94.6,2L93.35,-30.7L99.15,-30.9Z" style="fill:rgb(55,38,80);fill-rule:nonzero;"/>
            <path d="M130.95,-31.4C130.75,-27.033 130.583,-23 130.45,-19.3C130.383,-17.733 130.317,-16.158 130.25,-14.575C130.183,-12.992 130.125,-11.508 130.075,-10.125C130.025,-8.742 129.975,-7.533 129.925,-6.5C129.875,-5.467 129.85,-4.7 129.85,-4.2C129.817,-2.8 129.608,-1.517 129.225,-0.35C128.842,0.817 128.283,1.825 127.55,2.675C126.817,3.525 125.925,4.192 124.875,4.675C123.825,5.158 122.617,5.417 121.25,5.45C120.017,5.483 118.867,5.367 117.8,5.1C116.733,4.833 115.817,4.383 115.05,3.75C114.283,3.117 113.675,2.3 113.225,1.3C112.775,0.3 112.55,-0.917 112.55,-2.35L112.65,-3.3L118.45,-2.8L118.35,-2.35C118.35,-1.55 118.575,-1.008 119.025,-0.725C119.475,-0.442 120.183,-0.317 121.15,-0.35C122.083,-0.383 122.792,-0.767 123.275,-1.5C123.758,-2.233 124.017,-3.167 124.05,-4.3L124.05,-5.05C122.85,-3.95 121.517,-3.4 120.05,-3.4C118.75,-3.4 117.642,-3.667 116.725,-4.2C115.808,-4.733 115.058,-5.592 114.475,-6.775C113.892,-7.958 113.458,-9.492 113.175,-11.375C112.892,-13.258 112.75,-15.533 112.75,-18.2C112.75,-20.9 112.958,-23.175 113.375,-25.025C113.792,-26.875 114.35,-28.383 115.05,-29.55C115.75,-30.717 116.567,-31.558 117.5,-32.075C118.433,-32.592 119.417,-32.85 120.45,-32.85C121.317,-32.85 122.142,-32.658 122.925,-32.275C123.708,-31.892 124.433,-31.267 125.1,-30.4L125.1,-31.3C125.1,-31.433 125.117,-31.533 125.15,-31.6L130.95,-31.4ZM124.6,-18.5C124.533,-21.567 124.217,-23.742 123.65,-25.025C123.083,-26.308 122.417,-26.95 121.65,-26.95C120.817,-26.95 120.092,-26.283 119.475,-24.95C118.858,-23.617 118.55,-21.35 118.55,-18.15C118.55,-14.917 118.758,-12.617 119.175,-11.25C119.592,-9.883 120.267,-9.2 121.2,-9.2C122.033,-9.2 122.725,-9.7 123.275,-10.7C123.825,-11.7 124.2,-13 124.4,-14.6L124.6,-18.5Z" style="fill:rgb(55,38,80);fill-rule:nonzero;"/>
        </g>
    </g>
    <g transform="matrix(3.47109,0,0,3.47109,-3014.35,-1273.58)">
        <g transform="matrix(1,0,0,1,889.875,548.77)">
            <path d="M15.7,-22.75C15.767,-23.85 15.825,-24.883 15.875,-25.85C15.925,-26.817 15.95,-27.75 15.95,-28.65C15.95,-31.283 15.683,-33.283 15.15,-34.65C14.617,-36.017 13.583,-36.7 12.05,-36.7C10.95,-36.7 10.025,-36.175 9.275,-35.125C8.525,-34.075 7.925,-32.725 7.475,-31.075C7.025,-29.425 6.7,-27.567 6.5,-25.5C6.3,-23.433 6.2,-21.4 6.2,-19.4C6.2,-16.733 6.267,-14.258 6.4,-11.975C6.533,-9.692 6.8,-7.708 7.2,-6.025C7.6,-4.342 8.15,-3.025 8.85,-2.075C9.55,-1.125 10.45,-0.65 11.55,-0.65C12.383,-0.65 13.05,-0.933 13.55,-1.5C14.05,-2.067 14.433,-2.8 14.7,-3.7C14.967,-4.6 15.15,-5.608 15.25,-6.725C15.35,-7.842 15.4,-8.933 15.4,-10C15.4,-10.667 15.392,-11.308 15.375,-11.925C15.358,-12.542 15.333,-13.133 15.3,-13.7L21.1,-13.9C21.133,-13.333 21.158,-12.708 21.175,-12.025C21.192,-11.342 21.2,-10.667 21.2,-10C21.2,-8.233 21.083,-6.458 20.85,-4.675C20.617,-2.892 20.158,-1.267 19.475,0.2C18.792,1.667 17.817,2.858 16.55,3.775C15.283,4.692 13.617,5.15 11.55,5.15C9.217,5.15 7.325,4.517 5.875,3.25C4.425,1.983 3.292,0.25 2.475,-1.95C1.658,-4.15 1.108,-6.742 0.825,-9.725C0.542,-12.708 0.4,-15.933 0.4,-19.4C0.4,-22.1 0.592,-24.817 0.975,-27.55C1.358,-30.283 2,-32.758 2.9,-34.975C3.8,-37.192 5,-39 6.5,-40.4C8,-41.8 9.85,-42.5 12.05,-42.5C13.95,-42.5 15.517,-42.2 16.75,-41.6C17.983,-41 18.975,-40.117 19.725,-38.95C20.475,-37.783 21,-36.342 21.3,-34.625C21.6,-32.908 21.75,-30.917 21.75,-28.65C21.75,-27.75 21.725,-26.767 21.675,-25.7C21.625,-24.633 21.567,-23.55 21.5,-22.45L15.7,-22.75Z" style="fill:rgb(52,77,108);fill-rule:nonzero;"/>
        </g>
        <g transform="matrix(1,0,0,1,911.875,548.77)">
            <path d="M7.2,-36.75L6.15,2.6L0.35,2.5L1.4,-36.85L7.2,-36.75Z" style="fill:rgb(52,77,108);fill-rule:nonzero;"/>
            <path d="M24.25,-16.25C23.983,-16.25 23.433,-16.242 22.6,-16.225C21.767,-16.208 20.825,-16.192 19.775,-16.175C18.725,-16.158 17.633,-16.142 16.5,-16.125C15.367,-16.108 14.383,-16.1 13.55,-16.1L13.55,-14.35C13.617,-11.217 13.917,-8.717 14.45,-6.85C14.983,-4.983 15.883,-4.05 17.15,-4.05C17.55,-4.05 17.875,-4.242 18.125,-4.625C18.375,-5.008 18.575,-5.5 18.725,-6.1C18.875,-6.7 18.983,-7.358 19.05,-8.075C19.117,-8.792 19.15,-9.483 19.15,-10.15C19.15,-10.25 19.15,-10.433 19.15,-10.7C19.15,-10.967 19.142,-11.25 19.125,-11.55C19.108,-11.85 19.092,-12.142 19.075,-12.425C19.058,-12.708 19.05,-12.933 19.05,-13.1L24.85,-13.6C24.85,-13.433 24.858,-13.208 24.875,-12.925C24.892,-12.642 24.908,-12.325 24.925,-11.975C24.942,-11.625 24.95,-11.283 24.95,-10.95C24.95,-10.617 24.95,-10.35 24.95,-10.15C24.95,-8.85 24.842,-7.492 24.625,-6.075C24.408,-4.658 24.017,-3.375 23.45,-2.225C22.883,-1.075 22.092,-0.125 21.075,0.625C20.058,1.375 18.75,1.75 17.15,1.75C15.45,1.75 14.008,1.375 12.825,0.625C11.642,-0.125 10.692,-1.2 9.975,-2.6C9.258,-4 8.725,-5.683 8.375,-7.65C8.025,-9.617 7.817,-11.817 7.75,-14.25L7.75,-15.8C7.75,-18.033 7.9,-20.158 8.2,-22.175C8.5,-24.192 8.992,-25.967 9.675,-27.5C10.358,-29.033 11.258,-30.25 12.375,-31.15C13.492,-32.05 14.883,-32.5 16.55,-32.5C17.817,-32.5 18.883,-32.242 19.75,-31.725C20.617,-31.208 21.342,-30.525 21.925,-29.675C22.508,-28.825 22.95,-27.833 23.25,-26.7C23.55,-25.567 23.775,-24.4 23.925,-23.2C24.075,-22 24.167,-20.8 24.2,-19.6C24.233,-18.4 24.25,-17.283 24.25,-16.25ZM16.55,-26.7C15.817,-26.7 15.242,-26.258 14.825,-25.375C14.408,-24.492 14.1,-23.35 13.9,-21.95C14.767,-21.983 15.642,-22.008 16.525,-22.025C17.408,-22.042 18.05,-22.05 18.45,-22.05C18.417,-22.683 18.367,-23.283 18.3,-23.85C18.233,-24.417 18.125,-24.908 17.975,-25.325C17.825,-25.742 17.633,-26.075 17.4,-26.325C17.167,-26.575 16.883,-26.7 16.55,-26.7Z" style="fill:rgb(52,77,108);fill-rule:nonzero;"/>
            <path d="M26.4,-18.15C26.3,-18.783 26.233,-19.375 26.2,-19.925C26.167,-20.475 26.15,-20.983 26.15,-21.45C26.15,-23.083 26.325,-24.6 26.675,-26C27.025,-27.4 27.55,-28.617 28.25,-29.65C28.95,-30.683 29.8,-31.483 30.8,-32.05C31.8,-32.617 32.95,-32.9 34.25,-32.9C37.217,-32.9 39.408,-31.575 40.825,-28.925C42.242,-26.275 42.95,-22.467 42.95,-17.5C42.95,-15.5 42.983,-13.4 43.05,-11.2C43.117,-9 43.183,-6.983 43.25,-5.15C43.35,-2.983 43.45,-0.867 43.55,1.2L37.75,1.5C37.717,1.367 37.7,1.2 37.7,1C37.7,0.833 37.692,0.633 37.675,0.4C37.658,0.167 37.65,-0.1 37.65,-0.4C36.917,0.533 36.067,1.283 35.1,1.85C34.133,2.417 33.067,2.7 31.9,2.7C30.3,2.7 28.917,2.033 27.75,0.7C26.583,-0.633 25.867,-2.567 25.6,-5.1C25.467,-6.467 25.533,-7.833 25.8,-9.2C26.067,-10.567 26.508,-11.817 27.125,-12.95C27.742,-14.083 28.508,-15.033 29.425,-15.8C30.342,-16.567 31.4,-17.017 32.6,-17.15C34.367,-17.283 35.883,-16.883 37.15,-15.95L37.15,-17.5C37.15,-20.6 36.917,-22.975 36.45,-24.625C35.983,-26.275 35.25,-27.1 34.25,-27.1C33.483,-27.1 32.908,-26.558 32.525,-25.475C32.142,-24.392 31.95,-23.05 31.95,-21.45C31.95,-20.483 32,-19.65 32.1,-18.95L26.4,-18.15ZM34.6,-3.1C35.033,-3.1 35.417,-3.225 35.75,-3.475C36.083,-3.725 36.367,-4.058 36.6,-4.475C36.833,-4.892 37.008,-5.367 37.125,-5.9C37.242,-6.433 37.317,-6.967 37.35,-7.5C37.35,-7.667 37.342,-7.825 37.325,-7.975C37.308,-8.125 37.3,-8.283 37.3,-8.45C37.2,-9.25 36.892,-9.908 36.375,-10.425C35.858,-10.942 35.183,-11.167 34.35,-11.1C33.817,-11.067 33.35,-10.858 32.95,-10.475C32.55,-10.092 32.217,-9.642 31.95,-9.125C31.683,-8.608 31.5,-8.05 31.4,-7.45C31.3,-6.85 31.283,-6.333 31.35,-5.9C31.483,-5.133 31.808,-4.475 32.325,-3.925C32.842,-3.375 33.6,-3.1 34.6,-3.1Z" style="fill:rgb(52,77,108);fill-rule:nonzero;"/>
            <path d="M49.95,-30.9L49.95,-30.85C50.417,-31.417 50.992,-31.858 51.675,-32.175C52.358,-32.492 53.217,-32.65 54.25,-32.65C55.383,-32.65 56.417,-32.442 57.35,-32.025C58.283,-31.608 59.083,-30.9 59.75,-29.9C60.417,-28.9 60.942,-27.575 61.325,-25.925C61.708,-24.275 61.933,-22.2 62,-19.7C62.033,-18.767 62.067,-17.742 62.1,-16.625C62.133,-15.508 62.175,-14.367 62.225,-13.2C62.275,-12.033 62.325,-10.85 62.375,-9.65C62.425,-8.45 62.483,-7.3 62.55,-6.2C62.683,-3.633 62.817,-1.017 62.95,1.65L57.15,1.95C57.017,-0.75 56.883,-3.4 56.75,-6C56.683,-7.1 56.625,-8.258 56.575,-9.475C56.525,-10.692 56.475,-11.892 56.425,-13.075C56.375,-14.258 56.333,-15.408 56.3,-16.525C56.267,-17.642 56.233,-18.667 56.2,-19.6C56.133,-22.3 55.85,-24.183 55.35,-25.25C54.85,-26.317 54.067,-26.85 53,-26.85C52.533,-26.85 52.142,-26.683 51.825,-26.35C51.508,-26.017 51.25,-25.592 51.05,-25.075C50.85,-24.558 50.683,-23.983 50.55,-23.35C50.417,-22.717 50.333,-22.083 50.3,-21.45L51.2,1.8L45.4,2L44.15,-30.7L49.95,-30.9Z" style="fill:rgb(52,77,108);fill-rule:nonzero;"/>
            <path d="M70.2,-30.25L69.6,1.65L63.8,1.55L64.4,-30.35L70.2,-30.25ZM63.15,-35.85C63.15,-36.95 63.533,-37.892 64.3,-38.675C65.067,-39.458 66,-39.85 67.1,-39.85C68.167,-39.85 69.092,-39.458 69.875,-38.675C70.658,-37.892 71.05,-36.95 71.05,-35.85C71.05,-34.783 70.658,-33.858 69.875,-33.075C69.092,-32.292 68.167,-31.9 67.1,-31.9C66,-31.9 65.067,-32.292 64.3,-33.075C63.533,-33.858 63.15,-34.783 63.15,-35.85Z" style="fill:rgb(52,77,108);fill-rule:nonzero;"/>
            <path d="M77.3,-30.9L77.3,-30.85C77.767,-31.417 78.342,-31.858 79.025,-32.175C79.708,-32.492 80.567,-32.65 81.6,-32.65C82.733,-32.65 83.767,-32.442 84.7,-32.025C85.633,-31.608 86.433,-30.9 87.1,-29.9C87.767,-28.9 88.292,-27.575 88.675,-25.925C89.058,-24.275 89.283,-22.2 89.35,-19.7C89.383,-18.767 89.417,-17.742 89.45,-16.625C89.483,-15.508 89.525,-14.367 89.575,-13.2C89.625,-12.033 89.675,-10.85 89.725,-9.65C89.775,-8.45 89.833,-7.3 89.9,-6.2C90.033,-3.633 90.167,-1.017 90.3,1.65L84.5,1.95C84.367,-0.75 84.233,-3.4 84.1,-6C84.033,-7.1 83.975,-8.258 83.925,-9.475C83.875,-10.692 83.825,-11.892 83.775,-13.075C83.725,-14.258 83.683,-15.408 83.65,-16.525C83.617,-17.642 83.583,-18.667 83.55,-19.6C83.483,-22.3 83.2,-24.183 82.7,-25.25C82.2,-26.317 81.417,-26.85 80.35,-26.85C79.883,-26.85 79.492,-26.683 79.175,-26.35C78.858,-26.017 78.6,-25.592 78.4,-25.075C78.2,-24.558 78.033,-23.983 77.9,-23.35C77.767,-22.717 77.683,-22.083 77.65,-21.45L78.55,1.8L72.75,2L71.5,-30.7L77.3,-30.9Z" style="fill:rgb(52,77,108);fill-rule:nonzero;"/>
            <path d="M109.1,-31.4C108.9,-27.033 108.733,-23 108.6,-19.3C108.533,-17.733 108.467,-16.158 108.4,-14.575C108.333,-12.992 108.275,-11.508 108.225,-10.125C108.175,-8.742 108.125,-7.533 108.075,-6.5C108.025,-5.467 108,-4.7 108,-4.2C107.967,-2.8 107.758,-1.517 107.375,-0.35C106.992,0.817 106.433,1.825 105.7,2.675C104.967,3.525 104.075,4.192 103.025,4.675C101.975,5.158 100.767,5.417 99.4,5.45C98.167,5.483 97.017,5.367 95.95,5.1C94.883,4.833 93.967,4.383 93.2,3.75C92.433,3.117 91.825,2.3 91.375,1.3C90.925,0.3 90.7,-0.917 90.7,-2.35L90.8,-3.3L96.6,-2.8L96.5,-2.35C96.5,-1.55 96.725,-1.008 97.175,-0.725C97.625,-0.442 98.333,-0.317 99.3,-0.35C100.233,-0.383 100.942,-0.767 101.425,-1.5C101.908,-2.233 102.167,-3.167 102.2,-4.3L102.2,-5.05C101,-3.95 99.667,-3.4 98.2,-3.4C96.9,-3.4 95.792,-3.667 94.875,-4.2C93.958,-4.733 93.208,-5.592 92.625,-6.775C92.042,-7.958 91.608,-9.492 91.325,-11.375C91.042,-13.258 90.9,-15.533 90.9,-18.2C90.9,-20.9 91.108,-23.175 91.525,-25.025C91.942,-26.875 92.5,-28.383 93.2,-29.55C93.9,-30.717 94.717,-31.558 95.65,-32.075C96.583,-32.592 97.567,-32.85 98.6,-32.85C99.467,-32.85 100.292,-32.658 101.075,-32.275C101.858,-31.892 102.583,-31.267 103.25,-30.4L103.25,-31.3C103.25,-31.433 103.267,-31.533 103.3,-31.6L109.1,-31.4ZM102.75,-18.5C102.683,-21.567 102.367,-23.742 101.8,-25.025C101.233,-26.308 100.567,-26.95 99.8,-26.95C98.967,-26.95 98.242,-26.283 97.625,-24.95C97.008,-23.617 96.7,-21.35 96.7,-18.15C96.7,-14.917 96.908,-12.617 97.325,-11.25C97.742,-9.883 98.417,-9.2 99.35,-9.2C100.183,-9.2 100.875,-9.7 101.425,-10.7C101.975,-11.7 102.35,-13 102.55,-14.6L102.75,-18.5Z" style="fill:rgb(52,77,108);fill-rule:nonzero;"/>
            <path d="M125.45,-31.95L126.5,-13L129.4,-29.6C130.433,-29.667 131.458,-29.708 132.475,-29.725C133.492,-29.742 134.533,-29.767 135.6,-29.8L137.05,-15.9C137.417,-18 137.725,-19.992 137.975,-21.875C138.225,-23.758 138.45,-25.433 138.65,-26.9C138.85,-28.6 139.05,-30.167 139.25,-31.6L145.3,-31.25L140.15,1.4L134.8,1.8L131.7,-14.65L128.9,2C127.8,1.933 126.725,1.867 125.675,1.8C124.625,1.733 123.55,1.667 122.45,1.6L119.25,-31.75L125.45,-31.95Z" style="fill:rgb(52,77,108);fill-rule:nonzero;"/>
            <path d="M151.4,-30.25L150.8,1.65L145,1.55L145.6,-30.35L151.4,-30.25ZM144.35,-35.85C144.35,-36.95 144.733,-37.892 145.5,-38.675C146.267,-39.458 147.2,-39.85 148.3,-39.85C149.367,-39.85 150.292,-39.458 151.075,-38.675C151.858,-37.892 152.25,-36.95 152.25,-35.85C152.25,-34.783 151.858,-33.858 151.075,-33.075C150.292,-32.292 149.367,-31.9 148.3,-31.9C147.2,-31.9 146.267,-32.292 145.5,-33.075C144.733,-33.858 144.35,-34.783 144.35,-35.85Z" style="fill:rgb(52,77,108);fill-rule:nonzero;"/>
            <path d="M151.65,-31.2L153.4,-31.25C153.4,-31.95 153.392,-32.6 153.375,-33.2C153.358,-33.8 153.35,-34.333 153.35,-34.8L153.35,-36.25L159.15,-36.25L159.15,-31.55L163.8,-31.8L163.8,-26L159.2,-25.75L159.35,-5.4C159.383,-4.433 159.45,-3.725 159.55,-3.275C159.65,-2.825 159.825,-2.583 160.075,-2.55C160.325,-2.517 160.675,-2.675 161.125,-3.025C161.575,-3.375 162.167,-3.883 162.9,-4.55L164.8,0.55C164.233,1.25 163.508,1.875 162.625,2.425C161.742,2.975 160.783,3.25 159.75,3.25C157.85,3.25 156.358,2.492 155.275,0.975C154.192,-0.542 153.617,-2.633 153.55,-5.3C153.517,-6.3 153.492,-7.575 153.475,-9.125C153.458,-10.675 153.442,-12.358 153.425,-14.175C153.408,-15.992 153.4,-17.875 153.4,-19.825C153.4,-21.775 153.4,-23.65 153.4,-25.45L151.65,-25.4L151.65,-31.2Z" style="fill:rgb(52,77,108);fill-rule:nonzero;"/>
            <path d="M171.5,-37.25L171.45,-30.15C171.983,-30.817 172.6,-31.333 173.3,-31.7C174,-32.067 174.817,-32.25 175.75,-32.25C176.717,-32.25 177.642,-32.083 178.525,-31.75C179.408,-31.417 180.192,-30.792 180.875,-29.875C181.558,-28.958 182.1,-27.7 182.5,-26.1C182.9,-24.5 183.1,-22.45 183.1,-19.95C183.1,-19.15 183.1,-18.217 183.1,-17.15C183.1,-16.083 183.092,-14.967 183.075,-13.8C183.058,-12.633 183.042,-11.433 183.025,-10.2C183.008,-8.967 183,-7.767 183,-6.6C182.967,-3.867 182.933,-1.033 182.9,1.9L177.1,1.8C177.133,-1.1 177.167,-3.917 177.2,-6.65C177.2,-7.817 177.208,-9.008 177.225,-10.225C177.242,-11.442 177.258,-12.642 177.275,-13.825C177.292,-15.008 177.3,-16.125 177.3,-17.175C177.3,-18.225 177.3,-19.15 177.3,-19.95C177.3,-22.217 177.058,-23.867 176.575,-24.9C176.092,-25.933 175.417,-26.45 174.55,-26.45C173.683,-26.45 172.967,-25.975 172.4,-25.025C171.833,-24.075 171.483,-22.8 171.35,-21.2L171.2,1.9L165.4,1.9L165.7,-37.25L171.5,-37.25Z" style="fill:rgb(52,77,108);fill-rule:nonzero;"/>
            <path d="M200.95,-40.85L201.6,2.75L195.8,2.85L195.15,-40.75L200.95,-40.85Z" style="fill:rgb(52,77,108);fill-rule:nonzero;"/>
            <path d="M208.95,-30.9L208.95,-30.85C209.417,-31.417 209.992,-31.858 210.675,-32.175C211.358,-32.492 212.217,-32.65 213.25,-32.65C214.383,-32.65 215.417,-32.442 216.35,-32.025C217.283,-31.608 218.083,-30.9 218.75,-29.9C219.417,-28.9 219.942,-27.575 220.325,-25.925C220.708,-24.275 220.933,-22.2 221,-19.7C221.033,-18.767 221.067,-17.742 221.1,-16.625C221.133,-15.508 221.175,-14.367 221.225,-13.2C221.275,-12.033 221.325,-10.85 221.375,-9.65C221.425,-8.45 221.483,-7.3 221.55,-6.2C221.683,-3.633 221.817,-1.017 221.95,1.65L216.15,1.95C216.017,-0.75 215.883,-3.4 215.75,-6C215.683,-7.1 215.625,-8.258 215.575,-9.475C215.525,-10.692 215.475,-11.892 215.425,-13.075C215.375,-14.258 215.333,-15.408 215.3,-16.525C215.267,-17.642 215.233,-18.667 215.2,-19.6C215.133,-22.3 214.85,-24.183 214.35,-25.25C213.85,-26.317 213.067,-26.85 212,-26.85C211.533,-26.85 211.142,-26.683 210.825,-26.35C210.508,-26.017 210.25,-25.592 210.05,-25.075C209.85,-24.558 209.683,-23.983 209.55,-23.35C209.417,-22.717 209.333,-22.083 209.3,-21.45L210.2,1.8L204.4,2L203.15,-30.7L208.95,-30.9Z" style="fill:rgb(52,77,108);fill-rule:nonzero;"/>
            <path d="M221.2,-31.2L222.95,-31.25C222.95,-31.95 222.942,-32.6 222.925,-33.2C222.908,-33.8 222.9,-34.333 222.9,-34.8L222.9,-36.25L228.7,-36.25L228.7,-31.55L233.35,-31.8L233.35,-26L228.75,-25.75L228.9,-5.4C228.933,-4.433 229,-3.725 229.1,-3.275C229.2,-2.825 229.375,-2.583 229.625,-2.55C229.875,-2.517 230.225,-2.675 230.675,-3.025C231.125,-3.375 231.717,-3.883 232.45,-4.55L234.35,0.55C233.783,1.25 233.058,1.875 232.175,2.425C231.292,2.975 230.333,3.25 229.3,3.25C227.4,3.25 225.908,2.492 224.825,0.975C223.742,-0.542 223.167,-2.633 223.1,-5.3C223.067,-6.3 223.042,-7.575 223.025,-9.125C223.008,-10.675 222.992,-12.358 222.975,-14.175C222.958,-15.992 222.95,-17.875 222.95,-19.825C222.95,-21.775 222.95,-23.65 222.95,-25.45L221.2,-25.4L221.2,-31.2Z" style="fill:rgb(52,77,108);fill-rule:nonzero;"/>
            <path d="M251.3,-16.25C251.033,-16.25 250.483,-16.242 249.65,-16.225C248.817,-16.208 247.875,-16.192 246.825,-16.175C245.775,-16.158 244.683,-16.142 243.55,-16.125C242.417,-16.108 241.433,-16.1 240.6,-16.1L240.6,-14.35C240.667,-11.217 240.967,-8.717 241.5,-6.85C242.033,-4.983 242.933,-4.05 244.2,-4.05C244.6,-4.05 244.925,-4.242 245.175,-4.625C245.425,-5.008 245.625,-5.5 245.775,-6.1C245.925,-6.7 246.033,-7.358 246.1,-8.075C246.167,-8.792 246.2,-9.483 246.2,-10.15C246.2,-10.25 246.2,-10.433 246.2,-10.7C246.2,-10.967 246.192,-11.25 246.175,-11.55C246.158,-11.85 246.142,-12.142 246.125,-12.425C246.108,-12.708 246.1,-12.933 246.1,-13.1L251.9,-13.6C251.9,-13.433 251.908,-13.208 251.925,-12.925C251.942,-12.642 251.958,-12.325 251.975,-11.975C251.992,-11.625 252,-11.283 252,-10.95C252,-10.617 252,-10.35 252,-10.15C252,-8.85 251.892,-7.492 251.675,-6.075C251.458,-4.658 251.067,-3.375 250.5,-2.225C249.933,-1.075 249.142,-0.125 248.125,0.625C247.108,1.375 245.8,1.75 244.2,1.75C242.5,1.75 241.058,1.375 239.875,0.625C238.692,-0.125 237.742,-1.2 237.025,-2.6C236.308,-4 235.775,-5.683 235.425,-7.65C235.075,-9.617 234.867,-11.817 234.8,-14.25L234.8,-15.8C234.8,-18.033 234.95,-20.158 235.25,-22.175C235.55,-24.192 236.042,-25.967 236.725,-27.5C237.408,-29.033 238.308,-30.25 239.425,-31.15C240.542,-32.05 241.933,-32.5 243.6,-32.5C244.867,-32.5 245.933,-32.242 246.8,-31.725C247.667,-31.208 248.392,-30.525 248.975,-29.675C249.558,-28.825 250,-27.833 250.3,-26.7C250.6,-25.567 250.825,-24.4 250.975,-23.2C251.125,-22 251.217,-20.8 251.25,-19.6C251.283,-18.4 251.3,-17.283 251.3,-16.25ZM243.6,-26.7C242.867,-26.7 242.292,-26.258 241.875,-25.375C241.458,-24.492 241.15,-23.35 240.95,-21.95C241.817,-21.983 242.692,-22.008 243.575,-22.025C244.458,-22.042 245.1,-22.05 245.5,-22.05C245.467,-22.683 245.417,-23.283 245.35,-23.85C245.283,-24.417 245.175,-24.908 245.025,-25.325C244.875,-25.742 244.683,-26.075 244.45,-26.325C244.217,-26.575 243.933,-26.7 243.6,-26.7Z" style="fill:rgb(52,77,108);fill-rule:nonzero;"/>
            <path d="M270.95,-31.4C270.75,-27.033 270.583,-23 270.45,-19.3C270.383,-17.733 270.317,-16.158 270.25,-14.575C270.183,-12.992 270.125,-11.508 270.075,-10.125C270.025,-8.742 269.975,-7.533 269.925,-6.5C269.875,-5.467 269.85,-4.7 269.85,-4.2C269.817,-2.8 269.608,-1.517 269.225,-0.35C268.842,0.817 268.283,1.825 267.55,2.675C266.817,3.525 265.925,4.192 264.875,4.675C263.825,5.158 262.617,5.417 261.25,5.45C260.017,5.483 258.867,5.367 257.8,5.1C256.733,4.833 255.817,4.383 255.05,3.75C254.283,3.117 253.675,2.3 253.225,1.3C252.775,0.3 252.55,-0.917 252.55,-2.35L252.65,-3.3L258.45,-2.8L258.35,-2.35C258.35,-1.55 258.575,-1.008 259.025,-0.725C259.475,-0.442 260.183,-0.317 261.15,-0.35C262.083,-0.383 262.792,-0.767 263.275,-1.5C263.758,-2.233 264.017,-3.167 264.05,-4.3L264.05,-5.05C262.85,-3.95 261.517,-3.4 260.05,-3.4C258.75,-3.4 257.642,-3.667 256.725,-4.2C255.808,-4.733 255.058,-5.592 254.475,-6.775C253.892,-7.958 253.458,-9.492 253.175,-11.375C252.892,-13.258 252.75,-15.533 252.75,-18.2C252.75,-20.9 252.958,-23.175 253.375,-25.025C253.792,-26.875 254.35,-28.383 255.05,-29.55C255.75,-30.717 256.567,-31.558 257.5,-32.075C258.433,-32.592 259.417,-32.85 260.45,-32.85C261.317,-32.85 262.142,-32.658 262.925,-32.275C263.708,-31.892 264.433,-31.267 265.1,-30.4L265.1,-31.3C265.1,-31.433 265.117,-31.533 265.15,-31.6L270.95,-31.4ZM264.6,-18.5C264.533,-21.567 264.217,-23.742 263.65,-25.025C263.083,-26.308 262.417,-26.95 261.65,-26.95C260.817,-26.95 260.092,-26.283 259.475,-24.95C258.858,-23.617 258.55,-21.35 258.55,-18.15C258.55,-14.917 258.758,-12.617 259.175,-11.25C259.592,-9.883 260.267,-9.2 261.2,-9.2C262.033,-9.2 262.725,-9.7 263.275,-10.7C263.825,-11.7 264.2,-13 264.4,-14.6L264.6,-18.5Z" style="fill:rgb(52,77,108);fill-rule:nonzero;"/>
            <path d="M277.45,-31.55L277.45,-31.4C278.117,-31.867 278.825,-32.183 279.575,-32.35C280.325,-32.517 281.075,-32.558 281.825,-32.475C282.575,-32.392 283.3,-32.183 284,-31.85C284.7,-31.517 285.333,-31.083 285.9,-30.55L284.2,-24.75C283.367,-25.717 282.575,-26.367 281.825,-26.7C281.075,-27.033 280.4,-27.083 279.8,-26.85C279.2,-26.617 278.708,-26.133 278.325,-25.4C277.942,-24.667 277.717,-23.733 277.65,-22.6L278.3,2.2L272.5,2.3L271.65,-31.45L277.45,-31.55Z" style="fill:rgb(52,77,108);fill-rule:nonzero;"/>
            <path d="M292.05,-30.25L291.45,1.65L285.65,1.55L286.25,-30.35L292.05,-30.25ZM285,-35.85C285,-36.95 285.383,-37.892 286.15,-38.675C286.917,-39.458 287.85,-39.85 288.95,-39.85C290.017,-39.85 290.942,-39.458 291.725,-38.675C292.508,-37.892 292.9,-36.95 292.9,-35.85C292.9,-34.783 292.508,-33.858 291.725,-33.075C290.942,-32.292 290.017,-31.9 288.95,-31.9C287.85,-31.9 286.917,-32.292 286.15,-33.075C285.383,-33.858 285,-34.783 285,-35.85Z" style="fill:rgb(52,77,108);fill-rule:nonzero;"/>
            <path d="M292.3,-31.2L294.05,-31.25C294.05,-31.95 294.042,-32.6 294.025,-33.2C294.008,-33.8 294,-34.333 294,-34.8L294,-36.25L299.8,-36.25L299.8,-31.55L304.45,-31.8L304.45,-26L299.85,-25.75L300,-5.4C300.033,-4.433 300.1,-3.725 300.2,-3.275C300.3,-2.825 300.475,-2.583 300.725,-2.55C300.975,-2.517 301.325,-2.675 301.775,-3.025C302.225,-3.375 302.817,-3.883 303.55,-4.55L305.45,0.55C304.883,1.25 304.158,1.875 303.275,2.425C302.392,2.975 301.433,3.25 300.4,3.25C298.5,3.25 297.008,2.492 295.925,0.975C294.842,-0.542 294.267,-2.633 294.2,-5.3C294.167,-6.3 294.142,-7.575 294.125,-9.125C294.108,-10.675 294.092,-12.358 294.075,-14.175C294.058,-15.992 294.05,-17.875 294.05,-19.825C294.05,-21.775 294.05,-23.65 294.05,-25.45L292.3,-25.4L292.3,-31.2Z" style="fill:rgb(52,77,108);fill-rule:nonzero;"/>
            <path d="M304.45,-31.65C305.483,-31.65 306.5,-31.65 307.5,-31.65C308.5,-31.65 309.517,-31.667 310.55,-31.7L314.55,-13.3L319.1,-31.85C320.067,-31.85 321.008,-31.858 321.925,-31.875C322.842,-31.892 323.783,-31.9 324.75,-31.9L315.25,6.7C314.317,6.633 313.4,6.583 312.5,6.55C311.6,6.517 310.683,6.483 309.75,6.45L311.9,-2.45L304.45,-31.65Z" style="fill:rgb(52,77,108);fill-rule:nonzero;"/>
        </g>
    </g>
    <g transform="matrix(4.88691,0,0,4.88691,-4104.59,-2469.48)">
        <g transform="matrix(1,0,0,1,889.875,548.77)">
            <path d="M15.65,-36.3L6.25,-36.55L6.35,-28.75L14.25,-28.55L14.15,-22.75L6.4,-22.95L6.65,-0.9L16.45,-0.9L16.45,4.9L0.95,4.9L0.35,-42.4L15.65,-42.1L15.65,-36.3Z" style="fill:rgb(52,77,108);fill-rule:nonzero;"/>
            <path d="M23.75,-30.9L23.75,-30.85C24.217,-31.417 24.792,-31.858 25.475,-32.175C26.158,-32.492 27.017,-32.65 28.05,-32.65C29.183,-32.65 30.217,-32.442 31.15,-32.025C32.083,-31.608 32.883,-30.9 33.55,-29.9C34.217,-28.9 34.742,-27.575 35.125,-25.925C35.508,-24.275 35.733,-22.2 35.8,-19.7C35.833,-18.767 35.867,-17.742 35.9,-16.625C35.933,-15.508 35.975,-14.367 36.025,-13.2C36.075,-12.033 36.125,-10.85 36.175,-9.65C36.225,-8.45 36.283,-7.3 36.35,-6.2C36.483,-3.633 36.617,-1.017 36.75,1.65L30.95,1.95C30.817,-0.75 30.683,-3.4 30.55,-6C30.483,-7.1 30.425,-8.258 30.375,-9.475C30.325,-10.692 30.275,-11.892 30.225,-13.075C30.175,-14.258 30.133,-15.408 30.1,-16.525C30.067,-17.642 30.033,-18.667 30,-19.6C29.933,-22.3 29.65,-24.183 29.15,-25.25C28.65,-26.317 27.867,-26.85 26.8,-26.85C26.333,-26.85 25.942,-26.683 25.625,-26.35C25.308,-26.017 25.05,-25.592 24.85,-25.075C24.65,-24.558 24.483,-23.983 24.35,-23.35C24.217,-22.717 24.133,-22.083 24.1,-21.45L25,1.8L19.2,2L17.95,-30.7L23.75,-30.9Z" style="fill:rgb(52,77,108);fill-rule:nonzero;"/>
            <path d="M42.85,-30.9L42.85,-30.85C43.317,-31.417 43.892,-31.858 44.575,-32.175C45.258,-32.492 46.117,-32.65 47.15,-32.65C48.283,-32.65 49.317,-32.442 50.25,-32.025C51.183,-31.608 51.983,-30.9 52.65,-29.9C53.317,-28.9 53.842,-27.575 54.225,-25.925C54.608,-24.275 54.833,-22.2 54.9,-19.7C54.933,-18.767 54.967,-17.742 55,-16.625C55.033,-15.508 55.075,-14.367 55.125,-13.2C55.175,-12.033 55.225,-10.85 55.275,-9.65C55.325,-8.45 55.383,-7.3 55.45,-6.2C55.583,-3.633 55.717,-1.017 55.85,1.65L50.05,1.95C49.917,-0.75 49.783,-3.4 49.65,-6C49.583,-7.1 49.525,-8.258 49.475,-9.475C49.425,-10.692 49.375,-11.892 49.325,-13.075C49.275,-14.258 49.233,-15.408 49.2,-16.525C49.167,-17.642 49.133,-18.667 49.1,-19.6C49.033,-22.3 48.75,-24.183 48.25,-25.25C47.75,-26.317 46.967,-26.85 45.9,-26.85C45.433,-26.85 45.042,-26.683 44.725,-26.35C44.408,-26.017 44.15,-25.592 43.95,-25.075C43.75,-24.558 43.583,-23.983 43.45,-23.35C43.317,-22.717 43.233,-22.083 43.2,-21.45L44.1,1.8L38.3,2L37.05,-30.7L42.85,-30.9Z" style="fill:rgb(52,77,108);fill-rule:nonzero;"/>
            <path d="M63.1,-30.25L62.5,1.65L56.7,1.55L57.3,-30.35L63.1,-30.25ZM56.05,-35.85C56.05,-36.95 56.433,-37.892 57.2,-38.675C57.967,-39.458 58.9,-39.85 60,-39.85C61.067,-39.85 61.992,-39.458 62.775,-38.675C63.558,-37.892 63.95,-36.95 63.95,-35.85C63.95,-34.783 63.558,-33.858 62.775,-33.075C61.992,-32.292 61.067,-31.9 60,-31.9C58.9,-31.9 57.967,-32.292 57.2,-33.075C56.433,-33.858 56.05,-34.783 56.05,-35.85Z" style="fill:rgb(52,77,108);fill-rule:nonzero;"/>
            <path d="M73.5,-32.15C75.267,-32.15 76.725,-31.7 77.875,-30.8C79.025,-29.9 79.942,-28.675 80.625,-27.125C81.308,-25.575 81.783,-23.758 82.05,-21.675C82.317,-19.592 82.45,-17.35 82.45,-14.95C82.45,-12.55 82.267,-10.283 81.9,-8.15C81.533,-6.017 80.967,-4.15 80.2,-2.55C79.433,-0.95 78.467,0.325 77.3,1.275C76.133,2.225 74.75,2.7 73.15,2.7C71.55,2.7 70.175,2.292 69.025,1.475C67.875,0.658 66.933,-0.5 66.2,-2C65.467,-3.5 64.925,-5.3 64.575,-7.4C64.225,-9.5 64.05,-11.833 64.05,-14.4C64.05,-16.967 64.217,-19.333 64.55,-21.5C64.883,-23.667 65.425,-25.542 66.175,-27.125C66.925,-28.708 67.9,-29.942 69.1,-30.825C70.3,-31.708 71.767,-32.15 73.5,-32.15ZM73.5,-26.35C72.833,-26.35 72.267,-26.05 71.8,-25.45C71.333,-24.85 70.958,-24.017 70.675,-22.95C70.392,-21.883 70.183,-20.617 70.05,-19.15C69.917,-17.683 69.85,-16.1 69.85,-14.4C69.85,-12.7 69.908,-11.158 70.025,-9.775C70.142,-8.392 70.333,-7.2 70.6,-6.2C70.867,-5.2 71.208,-4.433 71.625,-3.9C72.042,-3.367 72.55,-3.1 73.15,-3.1C73.75,-3.1 74.275,-3.417 74.725,-4.05C75.175,-4.683 75.542,-5.533 75.825,-6.6C76.108,-7.667 76.317,-8.925 76.45,-10.375C76.583,-11.825 76.65,-13.35 76.65,-14.95C76.65,-16.55 76.6,-18.042 76.5,-19.425C76.4,-20.808 76.233,-22.017 76,-23.05C75.767,-24.083 75.45,-24.892 75.05,-25.475C74.65,-26.058 74.133,-26.35 73.5,-26.35Z" style="fill:rgb(52,77,108);fill-rule:nonzero;"/>
        </g>
        <g transform="matrix(1,0,0,1,972.475,548.77)">
            <path d="M9.1,-37.45L5.5,-19.8L1.5,-19.8L2.7,-38.65L9.1,-37.45Z" style="fill:rgb(52,77,108);fill-rule:nonzero;"/>
        </g>
        <g transform="matrix(1,0,0,1,979.125,548.77)">
            <path d="M11.7,-19.8C11.8,-20.533 11.85,-21.383 11.85,-22.35C11.85,-23.85 11.608,-24.942 11.125,-25.625C10.642,-26.308 9.967,-26.65 9.1,-26.65C8.633,-26.65 8.192,-26.35 7.775,-25.75C7.358,-25.15 7.15,-24.383 7.15,-23.45C7.15,-22.617 7.417,-21.733 7.95,-20.8C8.483,-19.867 9.4,-18.933 10.7,-18C13.067,-16.3 14.767,-14.45 15.8,-12.45C16.833,-10.45 17.35,-8.533 17.35,-6.7C17.35,-5.467 17.15,-4.317 16.75,-3.25C16.35,-2.183 15.783,-1.258 15.05,-0.475C14.317,0.308 13.425,0.925 12.375,1.375C11.325,1.825 10.167,2.05 8.9,2.05C7.3,2.05 5.925,1.767 4.775,1.2C3.625,0.633 2.683,-0.117 1.95,-1.05C1.217,-1.983 0.675,-3.058 0.325,-4.275C-0.025,-5.492 -0.2,-6.75 -0.2,-8.05C-0.2,-9.017 -0.092,-9.992 0.125,-10.975C0.342,-11.958 0.633,-12.883 1,-13.75L6.3,-11.45C6.1,-10.95 5.933,-10.4 5.8,-9.8C5.667,-9.2 5.6,-8.617 5.6,-8.05C5.6,-6.95 5.858,-5.958 6.375,-5.075C6.892,-4.192 7.733,-3.75 8.9,-3.75C9.7,-3.75 10.342,-4.025 10.825,-4.575C11.308,-5.125 11.55,-5.833 11.55,-6.7C11.55,-7.667 11.217,-8.725 10.55,-9.875C9.883,-11.025 8.8,-12.133 7.3,-13.2C5.1,-14.8 3.558,-16.5 2.675,-18.3C1.792,-20.1 1.35,-21.817 1.35,-23.45C1.35,-24.717 1.575,-25.9 2.025,-27C2.475,-28.1 3.058,-29.05 3.775,-29.85C4.492,-30.65 5.317,-31.283 6.25,-31.75C7.183,-32.217 8.133,-32.45 9.1,-32.45C11.767,-32.45 13.858,-31.625 15.375,-29.975C16.892,-28.325 17.65,-25.783 17.65,-22.35C17.65,-21.883 17.633,-21.375 17.6,-20.825C17.567,-20.275 17.5,-19.667 17.4,-19L11.7,-19.8Z" style="fill:rgb(52,77,108);fill-rule:nonzero;"/>
        </g>
    </g>
</svg>
