<?xml version="1.0" encoding="UTF-8" standalone="no"?>
<!DOCTYPE svg PUBLIC "-//W3C//DTD SVG 1.1//EN" "http://www.w3.org/Graphics/SVG/1.1/DTD/svg11.dtd">
<svg width="100%" height="100%" viewBox="0 0 1737 662" version="1.1" xmlns="http://www.w3.org/2000/svg" xmlns:xlink="http://www.w3.org/1999/xlink" xml:space="preserve" xmlns:serif="http://www.serif.com/" style="fill-rule:evenodd;clip-rule:evenodd;stroke-linejoin:round;stroke-miterlimit:1.41421;">
    <g transform="matrix(7.02548,0,0,7.02548,-4588.47,-3146.56)">
        <text x="652.536px" y="514.063px" style="font-family:'SakerSansBoldPERSONALUSE', 'Saker Sans Bold PERSONAL USE';font-size:50px;fill:rgb(52,77,108);">Integral</text>
        <text x="769.286px" y="514.063px" style="font-family:'SakerSansBoldPERSONALUSE', 'Saker Sans Bold PERSONAL USE';font-size:50px;fill:rgb(55,38,80);">Cleaning</text>
    </g>
    <g transform="matrix(3.47109,0,0,3.47109,-3014.35,-1273.58)">
        <text x="889.875px" y="548.77px" style="font-family:'SakerSansBoldPERSONALUSE', 'Saker Sans Bold PERSONAL USE';font-size:50px;fill:rgb(52,77,108);">C<tspan x="911.875px 919.525px 937.325px 956.225px 975.475px 983.875px 1003.12px 1022.38px 1033.28px 1057.42px 1065.83px 1078.53px 1097.28px 1108.17px 1116.88px 1136.12px 1148.83px 1166.62px 1185.88px 1199.58px 1207.98px 1220.67px " y="548.77px 548.77px 548.77px 548.77px 548.77px 548.77px 548.77px 548.77px 548.77px 548.77px 548.77px 548.77px 548.77px 548.77px 548.77px 548.77px 548.77px 548.77px 548.77px 548.77px 548.77px 548.77px ">leaning with Integrity</tspan></text>
    </g>
    <g transform="matrix(4.88691,0,0,4.88691,-4104.59,-2469.48)">
        <text x="889.875px" y="548.77px" style="font-family:'SakerSansBoldPERSONALUSE', 'Saker Sans Bold PERSONAL USE';font-size:50px;fill:rgb(52,77,108);">Ennio</text>
        <text x="972.475px" y="548.77px" style="font-family:'SakerSansBoldPERSONALUSE', 'Saker Sans Bold PERSONAL USE';font-size:50px;fill:rgb(52,77,108);">&apos;</text>
        <text x="979.125px" y="548.77px" style="font-family:'SakerSansBoldPERSONALUSE', 'Saker Sans Bold PERSONAL USE';font-size:50px;fill:rgb(52,77,108);">s</text>
    </g>
</svg>
