<?xml version="1.0" encoding="UTF-8" standalone="no"?>
<!DOCTYPE svg PUBLIC "-//W3C//DTD SVG 1.1//EN" "http://www.w3.org/Graphics/SVG/1.1/DTD/svg11.dtd">
<svg width="100%" height="100%" viewBox="0 0 1016 1202" version="1.1" xmlns="http://www.w3.org/2000/svg" xmlns:xlink="http://www.w3.org/1999/xlink" xml:space="preserve" xmlns:serif="http://www.serif.com/" style="fill-rule:evenodd;clip-rule:evenodd;stroke-linejoin:round;stroke-miterlimit:1.41421;">
    <g transform="matrix(1,0,0,1,-2814.44,-679.342)">
        <g transform="matrix(6.95869,-4.0176,4.0176,6.95869,1987.27,879.034)">
            <g transform="matrix(1,0,0,1,-0.201999,0.488978)">
                <path d="M79.857,124.28C79.751,105.189 72.369,110.48 73.393,85.057C73.996,70.083 92.273,45.06 119.194,46.209C146.114,47.358 164.122,68.171 164.723,88.529C165.323,108.886 156.963,112.168 157.645,122.775C158.472,135.656 164.5,145.132 164.883,163.656C165.108,174.513 155.492,204.125 117.958,204.125C80.424,204.125 72.851,167.496 72.851,160.034C72.851,143.386 79.963,143.371 79.857,124.28Z" style="fill:rgb(251,205,57);"/>
            </g>
            <g transform="matrix(1,0,0,1,-0.249365,2.04925)">
                <g transform="matrix(1,0,0,1,-10.5332,-12.1186)">
                    <circle cx="111.072" cy="98.269" r="11.577" style="fill:rgb(253,165,55);"/>
                </g>
                <g transform="matrix(1,0,0,1,16.557,23.4013)">
                    <circle cx="111.072" cy="98.269" r="11.577" style="fill:rgb(253,165,55);"/>
                </g>
                <g transform="matrix(1,0,0,1,6.27313,58.981)">
                    <circle cx="111.072" cy="98.269" r="11.577" style="fill:rgb(253,165,55);"/>
                </g>
                <g transform="matrix(0.570768,0.491143,-0.491143,0.570768,107.876,-42.6752)">
                    <circle cx="111.072" cy="98.269" r="11.577" style="fill:rgb(253,165,55);"/>
                </g>
                <g transform="matrix(0.570768,0.491143,-0.491143,0.570768,130.456,-15.8664)">
                    <circle cx="111.072" cy="98.269" r="11.577" style="fill:rgb(253,165,55);"/>
                </g>
                <g transform="matrix(0.570768,0.491143,-0.491143,0.570768,125.858,35.5891)">
                    <circle cx="111.072" cy="98.269" r="11.577" style="fill:rgb(253,165,55);"/>
                </g>
                <g transform="matrix(0.570768,0.491143,-0.491143,0.570768,111.542,69.192)">
                    <circle cx="111.072" cy="98.269" r="11.577" style="fill:rgb(253,165,55);"/>
                </g>
                <g transform="matrix(0.4549,0.391439,-0.391439,0.4549,109.277,7.58066)">
                    <circle cx="111.072" cy="98.269" r="11.577" style="fill:rgb(253,165,55);"/>
                </g>
                <g transform="matrix(0.4549,0.391439,-0.391439,0.4549,83.7151,63.6613)">
                    <circle cx="111.072" cy="98.269" r="11.577" style="fill:rgb(253,165,55);"/>
                </g>
                <g transform="matrix(0.4549,0.391439,-0.391439,0.4549,82.3137,85.2933)">
                    <circle cx="111.072" cy="98.269" r="11.577" style="fill:rgb(253,165,55);"/>
                </g>
                <g transform="matrix(0.599027,0.515459,-0.515459,0.599027,84.9898,2.28815)">
                    <circle cx="111.072" cy="98.269" r="11.577" style="fill:rgb(253,165,55);"/>
                </g>
            </g>
            <g transform="matrix(1,0,0,1,-1.48473,0.813881)">
                <g transform="matrix(1,0,0,1,-10.5332,-12.1186)">
                    <circle cx="111.072" cy="98.269" r="11.577" style="fill:rgb(253,179,55);"/>
                </g>
                <g transform="matrix(1,0,0,1,16.557,23.4013)">
                    <circle cx="111.072" cy="98.269" r="11.577" style="fill:rgb(253,179,55);"/>
                </g>
                <g transform="matrix(1,0,0,1,6.27313,58.981)">
                    <circle cx="111.072" cy="98.269" r="11.577" style="fill:rgb(253,179,55);"/>
                </g>
                <g transform="matrix(0.570768,0.491143,-0.491143,0.570768,107.876,-42.6752)">
                    <circle cx="111.072" cy="98.269" r="11.577" style="fill:rgb(253,179,55);"/>
                </g>
                <g transform="matrix(0.570768,0.491143,-0.491143,0.570768,130.456,-15.8664)">
                    <circle cx="111.072" cy="98.269" r="11.577" style="fill:rgb(253,179,55);"/>
                </g>
                <g transform="matrix(0.570768,0.491143,-0.491143,0.570768,125.858,35.5891)">
                    <circle cx="111.072" cy="98.269" r="11.577" style="fill:rgb(253,179,55);"/>
                </g>
                <g transform="matrix(0.570768,0.491143,-0.491143,0.570768,111.542,69.192)">
                    <circle cx="111.072" cy="98.269" r="11.577" style="fill:rgb(253,179,55);"/>
                </g>
                <g transform="matrix(0.4549,0.391439,-0.391439,0.4549,109.277,7.58066)">
                    <circle cx="111.072" cy="98.269" r="11.577" style="fill:rgb(253,179,55);"/>
                </g>
                <g transform="matrix(0.4549,0.391439,-0.391439,0.4549,83.7151,63.6613)">
                    <circle cx="111.072" cy="98.269" r="11.577" style="fill:rgb(253,179,55);"/>
                </g>
                <g transform="matrix(0.4549,0.391439,-0.391439,0.4549,82.3137,85.2933)">
                    <circle cx="111.072" cy="98.269" r="11.577" style="fill:rgb(253,179,55);"/>
                </g>
                <g transform="matrix(0.599027,0.515459,-0.515459,0.599027,84.9898,2.28815)">
                    <circle cx="111.072" cy="98.269" r="11.577" style="fill:rgb(253,179,55);"/>
                </g>
            </g>
        </g>
    </g>
</svg>
